<?xml version="1.0" standalone="no"?>
<svg viewBox="0 0 200 200" xmlns="http://www.w3.org/2000/svg">
  <path fill="#000000" d="M34,-49.8C48.8,-43.4,68.7,-41.9,72.5,-33.2C76.4,-24.5,64.2,-8.5,59.9,7.3C55.5,23.1,59.1,38.7,54.9,52.7C50.8,66.8,38.8,79.2,24.8,82.4C10.8,85.5,-5.3,79.4,-22.2,74.8C-39.1,70.2,-56.6,67.3,-66.4,57C-76.2,46.7,-78.2,29.1,-72.5,15.3C-66.9,1.6,-53.6,-8.4,-48.8,-23.7C-44,-38.9,-47.7,-59.5,-41,-69.5C-34.3,-79.5,-17.1,-79,-3.8,-73.1C9.6,-67.3,19.2,-56.1,34,-49.8Z" transform="translate(100 100)" />
</svg>
