<svg id="Слой_1" data-name="Слой 1" xmlns="http://www.w3.org/2000/svg" viewBox="0 0 400.46 421.23"><defs><style>.cls-1{fill:#fefefe;}.cls-2{fill:#6441b0;}.cls-3{fill:#955494;}.cls-4{fill:#bc637e;}.cls-5{fill:#bf637c;}.cls-6{fill:#ae5e87;}.cls-7{fill:#c2657b;}.cls-8{fill:#5c3fb4;}.cls-9{fill:#bb627f;}.cls-10{fill:#b86281;}.cls-11{fill:#975592;}.cls-12{fill:#b66081;}.cls-13{fill:#b76282;}.cls-14{fill:#9a5691;}.cls-15{fill:#b76181;}.cls-16{fill:#ba627f;}.cls-17{fill:#a75c8c;}.cls-18{fill:#b15e84;}.cls-19{fill:#b25f84;}.cls-20{fill:#d56d71;}.cls-21{fill:#a1598e;}.cls-22{fill:#a75b8b;}.cls-23{fill:#6944ae;}.cls-24{fill:#b06087;}.cls-25{fill:#d16d75;}.cls-26{fill:#784aa5;}.cls-27{fill:#5e40b3;}.cls-28{fill:#7247a9;}.cls-29{fill:#b46083;}.cls-30{fill:#a1588d;}.cls-31{fill:#a55a8b;}.cls-32{fill:#6242b1;}.cls-33{fill:#6241b2;}.cls-34{fill:#7147a9;}.cls-35{fill:#7248aa;}.cls-36{fill:#aa5e8c;}.cls-37{fill:#c1667d;}.cls-38{fill:#864f9d;}.cls-39{fill:#7e4da3;}.cls-40{fill:#905398;}.cls-41{fill:#a15a8f;}.cls-42{fill:#9b5792;}.cls-43{fill:#bf647e;}.cls-44{fill:#c6677a;}.cls-45{fill:#854f9e;}.cls-46{fill:#a25a8e;}.cls-47{fill:#925497;}.cls-48{fill:#bc6380;}.cls-49{fill:#6643af;}.cls-50{fill:#88519d;}.cls-51{fill:#8d529a;}.cls-52{fill:#e8c2c8;}.cls-53{fill:#7f4da2;}.cls-54{fill:#8e539a;}.cls-55{fill:#774aa6;}.cls-56{fill:#804ea2;}.cls-57{fill:#ce6a76;}.cls-58{fill:#c8697b;}.cls-59{fill:#b46488;}.cls-60{fill:#9a5793;}.cls-61{fill:#935497;}.cls-62{fill:#965695;}.cls-63{fill:#aa5e8b;}.cls-64{fill:#9e5991;}.cls-65{fill:#89519d;}.cls-66{fill:#7d4fa6;}.cls-67{fill:#8c529b;}.cls-68{fill:#7b4ca5;}.cls-69{fill:#6f49ae;}.cls-70{fill:#c4697e;}.cls-71{fill:#975796;}.cls-72{fill:#834fa1;}.cls-73{fill:#d4cae8;}.cls-74{fill:#dfd6ec;}.cls-75{fill:#cb7a8b;}.cls-76{fill:#6d46ad;}.cls-77{fill:#cbbde1;}.cls-78{fill:#6844ae;}.cls-79{fill:#dec2d3;}.cls-80{fill:#e4d0de;}.cls-81{fill:#bba6d4;}.cls-82{fill:#6744af;}.cls-83{fill:#cdc1e4;}.cls-84{fill:#f3f0f8;}.cls-85{fill:#dcd2e9;}.cls-86{fill:#d8d0ea;}.cls-87{fill:#9b5791;}.cls-88{fill:#a55c8d;}.cls-89{fill:#d28b9a;}.cls-90{fill:#e3b3bc;}.cls-91{fill:#b39ed1;}.cls-92{fill:#c87082;}.cls-93{fill:#985593;}.cls-94{fill:#a85b89;}.cls-95{fill:#e8e0ef;}.cls-96{fill:#c8b9df;}.cls-97{fill:#a75d8d;}.cls-98{fill:#e0b1bc;}.cls-99{fill:#ecd1d7;}.cls-100{fill:#f3f0f7;}.cls-101{fill:#c56679;}.cls-102{fill:#d09db3;}.cls-103{fill:#e9e2f1;}.cls-104{fill:#e2daed;}.cls-105{fill:#985592;}.cls-106{fill:#ae5d86;}.cls-107{fill:#bb627e;}.cls-108{fill:#f3ebf1;}.cls-109{fill:#ab5e8a;}.cls-110{fill:#c66678;}.cls-111{fill:#cb6a78;}.cls-112{fill:#6a44ad;}.cls-113{fill:#9c5690;}.cls-114{fill:#9e578f;}.cls-115{fill:#ca6776;}.cls-116{fill:#c2657a;}.cls-117{fill:#be637c;}.cls-118{fill:#aa5c89;}.cls-119{fill:#a1598f;}.cls-120{fill:#b05f86;}.cls-121{fill:#ab5d89;}.cls-122{fill:#faf7f9;}.cls-123{fill:#d7afc3;}.cls-124{fill:#d7b0c3;}</style></defs><title>logo</title><path class="cls-1" d="M127.84,331.37q0-103.68-.07-207.35c0-2.74.53-3.27,3.27-3.27q197,.12,393.92,0c2.73,0,3.27.53,3.27,3.27q-.13,207.35,0,414.69c0,2.74-.54,3.27-3.27,3.27q-197-.12-393.92,0c-2.74,0-3.28-.53-3.27-3.27Q127.91,435,127.84,331.37Zm298.9,110.69,0,0c.6-1.32,1.6-2.48,1.66-4l0,.06c2.08-2.26,3.05-5.08,4-7.92,3.42-8,6.35-16,7.2-24.76,2-5.17,1.69-10.71,2.43-16.07,1.37-9.85-.35-19.52-2.42-29.13a15.39,15.39,0,0,0,0-2.35c-.42-3.2-1.77-5.77-5.48-5.42s-4.71,3-4.2,6.31c.46,3,1.08,6,1.63,8.95.12,1.84.25,3.68.34,5.52.34,6.45,1.86,13.11.71,19.28-1.48,8-2.86,16.06-5.19,23.89a64.65,64.65,0,0,0-4,11.19l-1.51,3.21c-3.84,6.35-7.07,13.05-11.38,19.11-5.72,5.68-10.15,12.59-16.58,17.6-6.79,4.33-12.54,10.19-20,13.49l-14.35,5.68-4.68.93c-3.82.66-7.85.2-11.4,2.21l-6.24.18L318,490l-3.21,0-1.51-.16c-3.51-2.08-7.53-1.58-11.32-2.26l-4.6-.9-4.89-1.61,0,0c-1.43-.81-2.82-1.7-4.56-1.66-1.37-1.44-3.24-1.83-5-2.42H283a23.39,23.39,0,0,0-6.25-3.2c-3.44-2.1-6-5.43-9.72-7.12a10.84,10.84,0,0,0-4.1-3.19h0a15.8,15.8,0,0,0-4.72-4l-7.19-8a10,10,0,0,0-3.31-4h0L246.31,450a18.82,18.82,0,0,0-4.15-5.62l0,0a3.18,3.18,0,0,0-1.62-2.44h0c-.94-4.19-3.78-7.4-5.7-11.08a6.17,6.17,0,0,0-1.51-3.22c-.81-2.15-.72-4.63-2.45-6.42l0,0a10,10,0,0,0-1.59-4.78q-2-9.18-4.09-18.37a136.45,136.45,0,0,1,.87-36.61l4.8-17.55c.82-2.17,1.63-4.33,2.44-6.5v0c.7-1.27,1.42-2.53,2.1-3.8,4.11-7.69,7.81-15.62,13.78-22.15a1.66,1.66,0,0,0,1.27-2.11c1-1.21,1.94-2.52,3.05-3.63,5.66-5.63,12-10.47,18.2-15.47,8-4.3,15.84-8.77,24.61-11.31,1.51-.08,2.51-.67,2.36-2.39l.93-1.4c1.06-1.27.7-2.79.7-4.21q0-38.3,0-76.58c0-1.42.38-2.95-.72-4.2a1.53,1.53,0,0,0-1.44-1.54,6.73,6.73,0,0,0-1.89-1.3c-7.45-2-8.53-3.51-7.74-11.38l3.12-3.17,73.4,0c4.13,3.81,4.45,6.88,1.35,12.7-1.78.77-3.41,1.8-5.52,1.86a4,4,0,0,0-3.85,2.87c-1.1,1.25-.72,2.78-.72,4.2q0,38.29,0,76.6c0,1.42-.35,2.95.71,4.21a5.18,5.18,0,0,0,3.14,3.7c3.77,1.38,7.55,2.74,11.32,4.11l8,4h0a17,17,0,0,0,5.59,3.34c2,1.39,3.24,3.74,5.59,4.73l8.73,7.4L405,308a21.12,21.12,0,0,0,4.5,6.41c1.92,1.88,4.1,2.41,6.4.77s2.59-3.93,1.65-6.35a11.78,11.78,0,0,0-4.22-5.09c-3.32-4.95-8-8.61-12.15-12.76a22.26,22.26,0,0,0-7.26-5.62l0,0a3,3,0,0,0-2.33-1.6,16.31,16.31,0,0,0-6.49-4l.06,0c-2.29-1.79-4.22-4.14-7.29-4.72a20,20,0,0,0-7.71-3.29L366,269.42q0-34.06.07-68.13c0-2.21,0-4.27,2.37-5.34,4-2.84,7.8-5.78,8.81-11,1.8-6.65,1.37-12.8-4.11-17.77-3.41-3.46-7.17-6.12-12.38-5.82-2.78.16-5.57.14-8.36.2-19.61,0-39.23,0-58.84-.12-2.26,0-3.68,1.11-5.09,2.52-4.71,1.59-7.35,5.06-8.76,9.65-2.75,8-.16,16.26,6.31,20l0,0c.82.79,1,2.27,2.48,2.36l2.38,1.56q0,33.84-.08,67.66c0,1.7.31,3.46-.67,5a5.22,5.22,0,0,0-3.22,1.44,12,12,0,0,0-5.61,2.26c-3.41.88-5.93,3.33-8.88,5a102.89,102.89,0,0,0-25.85,20.93c-7.8,8.59-14.56,17.86-19,28.68-5.34,9.2-8.22,19.24-10.16,29.6-.52,3.73-2,7.32-1.57,11.17-2.69,11.94-1.14,23.71,1.41,35.44a19.88,19.88,0,0,0,1.66,8.7,75.12,75.12,0,0,0,5.59,16.77,21.8,21.8,0,0,0,4,8c.53,1.3,1.07,2.59,1.61,3.88v0a3.89,3.89,0,0,0,1.56,2.64A22.27,22.27,0,0,0,236.4,452l5.61,7.9a25.93,25.93,0,0,0,6.46,7v0l2.39,2.5a11.71,11.71,0,0,0,4.78,4l-.1-.05c.29,2.43,2.34,3.12,4.08,4.11a37.46,37.46,0,0,0,10.44,7.12,20.67,20.67,0,0,0,7.14,3.94v0a5.55,5.55,0,0,0,3.23,1.66c.61,2,2.27,2.25,4,2.43l0-.06a31.38,31.38,0,0,0,10.45,4c6.44,2.56,13.31,3.24,20,4.65a48.71,48.71,0,0,0,27.16,0l6.49-1.52a14.28,14.28,0,0,0,7.4-1.56c2.25.2,4.16-.88,6.16-1.63l0,0a34.61,34.61,0,0,0,10.63-4c3-.22,4.61-2.76,7-4l0,0a20,20,0,0,0,7.23-4l0,0a31,31,0,0,0,8.69-5.71c10.85-8.5,20.27-18.27,27.24-30.26a7.26,7.26,0,0,0,2.54-4l-.06,0A3.41,3.41,0,0,0,426.74,442.06ZM347.58,327c-.35-2.12-1.95-1.53-3.29-1.51l-3.92-.05-2.23-.1c-8-1.48-16-.5-24,.21-1.34-.07-2.9-.66-3.32,1.42l-2.62.75a6.1,6.1,0,0,0-3.89.83,19.81,19.81,0,0,0-8,2.41,13,13,0,0,0-5.59,2.39,12.78,12.78,0,0,0-5.55,3c-3.79,2-7.33,4.31-9.5,8.2a31.37,31.37,0,0,0-6.62,8.68c-1.66-.43-.82-1.69-.82-2.62q0-21,0-41.91c0-2.47-.5-4.74-3.49-4.8-2.74-.06-3.46,1.88-3.45,4.33q.1,36.51.15,73v16c.15,6.67-1,13.38.65,20a6.81,6.81,0,0,0,1.5,4.26,2.72,2.72,0,0,0,.93,2.15l.52.87a4,4,0,0,0,1.81,3.2c6.71,9.23,16.39,14.28,26.85,17.21,20,5.58,40.36,5.39,60.79,2.24a60.47,60.47,0,0,0,30.71-13.65c1.76-1,3.4-2.17,4-4.28l1.52-1.69a2.53,2.53,0,0,0,1.54-3.07c.12-.51.24-1,.37-1.52l1.29-1.75c2.36-3.1,2.59-6.65,2.23-10.33l.28-14.37c2.83-1.09,1.2-2.16,0-3.24l-.27.05.3-7.18c.62-.14,1.25-.28,1.33-1.06.11-1-.6-1.24-1.36-1.42l-.25.07,0-7.21q.08-33.75.16-67.5c0-2.57-.14-5.16-3.48-5.11s-3.47,2.67-3.46,5.22q0,14.78,0,29.56c0,4.13,0,8.25,0,12.38,0,.64.64,1.74-.73,1.71-.38,0-.75-.68-1.12-1-1.45-3.31-4.15-5.57-6.68-8-1.51-4-5.22-5.43-8.46-7.42a12.83,12.83,0,0,0-5.54-3,13,13,0,0,0-5.59-2.39,20.08,20.08,0,0,0-8-2.41,6.13,6.13,0,0,0-3.9-.82Zm4.95,154.29a21.1,21.1,0,0,0,7.9-2.41l0,0c4.73-1.27,9.35-2.79,12.92-6.42,14.61-6.53,25.14-17.79,34.15-30.47,3.22-4.52,6.58-9.25,8.13-14.82,4.4-8.43,6.78-17.5,8.61-26.76.67-3.41-.42-5.53-3.84-6-3.19-.48-5.27,1.37-5.73,4.3-1.8,11.42-6.37,21.82-11.29,32.12-4.64,5.55-7.9,12.16-13.32,17.12-6.11,5.59-12.27,11.13-19.33,15.55a13.47,13.47,0,0,0-4.8,2.51l0,0c-6.81,2.43-13.48,5.3-20.67,6.52-1.71,0-3.6-.49-5.09.08-2.55,1-5.89-.81-7.77,2.25h-9.57a1.47,1.47,0,0,0-1.48-1.5c-3.52-.15-6.95-1.32-10.51-.9-1.54-.26-3-1.18-4.62-.84L291,466a13.34,13.34,0,0,0-4.84-2.48l0,0a17.53,17.53,0,0,0-5-3.09A126.84,126.84,0,0,0,268.43,450a23.4,23.4,0,0,0-5.36-5.65c-1.85-2.7-3.2-5.75-5.72-8-1.14-2-2.16-4.13-4-5.68l.05,0q-2.84-6-5.69-12l-1.55-3.9-1.74-7.11c-.88-5.91-1.47-11.87-3.18-17.63,0-3.45-.83-6.93.4-10.33,4.13-.8,8.27-1.55,12.38-2.42,4.48-.94,5.88-4.83,3.24-8.83a4.31,4.31,0,0,0-4.65-1.48q-8.16,1.81-16.3,3.74c-2.48.59-4.55,1.83-4.82,4.63a79.51,79.51,0,0,0,2.56,29.95,11,11,0,0,0,1.54,6.59c.89,5.41,3.21,10.29,5.55,15.16a.44.44,0,0,0,.15.54,42.79,42.79,0,0,0,7.13,12.1,17.55,17.55,0,0,0,5.56,8.07,36.36,36.36,0,0,0,8.86,9.4h0c.13,2,1.63,2.72,3.15,3.45,2.21,2.66,5.14,4.44,8,6.33a10.48,10.48,0,0,0,3.93,2.52l2.36,1.34c1.06.67,2,1.56,3.35,1.66,3.53,3.6,8.11,5.09,12.79,6.37,4.22,2.06,8.79,3,13.34,3.83,11.82,2.25,23.69,2.79,35.55.13A20.92,20.92,0,0,0,352.53,481.25Zm53.37-88c.11.82.31,1.58,1.39,1.46.84-.1.91-.79,1-1.45-.92-1.85-.2-4.25-2.39-7Zm23.31-64.77c-.68-1.74-.62-3.84-2.44-5-1.17-2.44-3.26-2.44-5.33-1.74s-2.94,2.4-2.94,4.62c0,3.1,1.76,5.4,3.31,7.82.86,2.64,1.8,5.23,4.12,7,1.26,1.52,2.48,3.79,3.94.16,2.82-1.65,3.85-4.05,2.46-7-.93-2-1.55-4.22-3.17-5.86ZM310.06,196a4.41,4.41,0,0,0-2.8,4c-.11,8.58-.68,17.17.29,25.74-.11,1.54,0,3,1.62,3.78,4.73,2.41,7.73.41,7.85-5.51.14-7.52,0-15,0-22.56,0-1.91-.33-3.69-2.22-4.72L314,196C312.67,193.42,311.36,193.4,310.06,196Zm30.35,83c-.65-1.65-1.79-2.25-3.63-2.4a9.78,9.78,0,0,0-8.33,3.36c-8,6.65-8,17.45-.1,22.42a12.55,12.55,0,0,0,17.35-2.52,13.3,13.3,0,0,0-1.95-18.48A5.7,5.7,0,0,0,340.41,279Zm-43.18,35.89a12.36,12.36,0,0,0-11.33,6.71c-1.1,2-2.66,4.64-.8,6.13,2.09,1.67,4.23-.6,6-2.2,2.27-2.06,4.58-3.86,8-3.55,2.89.26,7.86-1,7.6-2.32-.65-3.25-4.54-4.25-7.89-4.76A10.54,10.54,0,0,0,297.23,314.85Z" transform="translate(-127.77 -120.75)"/><path class="cls-2" d="M415.59,427.16c-1.55,5.57-4.91,10.3-8.13,14.82-9,12.68-19.54,23.94-34.15,30.47-5.07.6-8.57,4.37-12.92,6.42l0,0-2.46-.08c-.22-1.62.9-2.55,1.68-3.76,1.67-2.6,4.59-4.26,5.5-7.4l.77-1.67,0,0c1.88-.3,4.18.19,4.8-2.51,7.06-4.42,13.22-10,19.33-15.55,5.42-5,8.68-11.57,13.32-17.12,1.94.18,2.17-1.65,2.39-2.64,1.65-7.26,7.74-10.85,12.48-15.55.43-.42,1-1,1.8-.18C419.37,417.51,415.51,421.76,415.59,427.16Z" transform="translate(-127.77 -120.75)"/><path class="cls-3" d="M392.63,423c-.13.51-.25,1-.37,1.52a4.54,4.54,0,0,0-1.54,3.07l-1.52,1.69a8.89,8.89,0,0,0-4,4.28,60.47,60.47,0,0,1-30.71,13.65c-20.43,3.15-40.81,3.34-60.79-2.24-10.46-2.93-20.14-8-26.85-17.21-.14-1.33-.44-2.56-1.81-3.2l-.52-.87c1.38-1,2.34-.36,3.45.66A54.07,54.07,0,0,0,279.5,432c8.24,4.39,17.18,7,25.95,9.9,8,2.66,16.41,3.25,24.66,3.13a84.92,84.92,0,0,0,29.44-5.48c7.65-3,15.41-5.59,22.59-9.76C385.78,427.65,388.35,424,392.63,423Z" transform="translate(-127.77 -120.75)"/><path class="cls-4" d="M361.28,330.92a13,13,0,0,1,5.59,2.39c-2.29.43-2.22,2.47-2.45,4-1.85,12.39-8.08,21.79-18.83,28.25-1,.63-2.39,1.09-3.18,2.92h13.95a1.7,1.7,0,0,1,1.6.81H299.63c.58-.92,1.52-.76,2.4-.8h13c-.34-1.91-1.6-2.22-2.6-2.77-11.06-6.14-17.12-15.7-19.22-28-.3-1.71-.06-3.86-2.5-4.42a13,13,0,0,1,5.59-2.39c1.79.15,2.46,1.17,2.54,2.91.49,10.13,5,18.06,13,24.21s17.41,7.76,26.56,4c12.08-4.94,19.44-14.26,20.29-27.82C358.85,332.43,359.2,331.09,361.28,330.92Z" transform="translate(-127.77 -120.75)"/><path class="cls-5" d="M361.28,330.92c-2.08.17-2.43,1.51-2.55,3.32-.85,13.56-8.21,22.88-20.29,27.82-9.15,3.74-18.36,2.21-26.56-4s-12.55-14.08-13-24.21c-.08-1.74-.75-2.76-2.54-2.91a19.81,19.81,0,0,1,8-2.41c3.13,1,1.63,3.57,1.69,5.39.46,15.8,16.16,26.51,31.54,20.34,9.36-3.76,14.1-11.24,14.11-21.53,0-1.52-.94-3.66,1.71-4.2A20.08,20.08,0,0,1,361.28,330.92Z" transform="translate(-127.77 -120.75)"/><path class="cls-6" d="M387.55,351.73c.37.36.74,1,1.12,1,1.37,0,.73-1.07.73-1.71,0-4.13,0-8.25,0-12.38q0-14.78,0-29.56c0-2.55.19-5.16,3.46-5.22s3.48,2.54,3.48,5.11q-.12,33.75-.16,67.5h-.64V356.65c-.89.76-1.28,1-1.42,1.25-.41.83-.67,1.73-1.07,2.57-4.18,8.73-8.55,17.34-15.87,24l-4.86-7a4.31,4.31,0,0,1,1.39-2.74c5.09-6.08,9.45-12.59,11.75-20.3A3.82,3.82,0,0,1,387.55,351.73Z" transform="translate(-127.77 -120.75)"/><path class="cls-6" d="M261.44,381.26q-.06-36.52-.15-73c0-2.45.71-4.39,3.45-4.33,3,.06,3.49,2.33,3.49,4.8q0,21,0,41.91c0,.93-.84,2.19.82,2.62a3,3,0,0,1,1.9,1.92c2.5,8.91,8.69,15.64,13.57,23.15l-3.78,5.5c-2-.12-3-1.54-4.06-2.91A86.16,86.16,0,0,1,264,358.94c-.28-.7-.38-2-1.95-1.52v19.09C261.86,378.09,262.61,379.8,261.44,381.26Z" transform="translate(-127.77 -120.75)"/><path class="cls-7" d="M353.32,328.51c-2.65.54-1.71,2.68-1.71,4.2,0,10.29-4.75,17.77-14.11,21.53-15.38,6.17-31.08-4.54-31.54-20.34-.06-1.82,1.44-4.42-1.69-5.39a6,6,0,0,1,3.89-.82c1.69-.12,3.49.68,5-.64a4.07,4.07,0,0,1,.78-.11l.85.09c-.21,5.48.11,10.62,3.95,15.29a13.27,13.27,0,0,0,20.08,0c3.84-4.68,4.15-9.82,3.94-15.3l1.68-.14-.08.09c1.51,1.45,3.34.58,5,.72A6.13,6.13,0,0,1,353.32,328.51Z" transform="translate(-127.77 -120.75)"/><path class="cls-8" d="M422.71,448.51c-7,12-16.39,21.76-27.24,30.26a14.13,14.13,0,0,0-8.69,5.71l0,0a9.12,9.12,0,0,0-7.23,4l0,0c-4-.85-1.13-2.49-.23-3.41,5.33-5.42,11.06-10.5,14.52-17.47,6.43-5,10.86-11.92,16.58-17.6A49.5,49.5,0,0,0,422,439.51c1.82-2.4,3.81-4.61,6.76-5.68.94,1.62-.57,2.87-.37,4.3l0-.06c-2,.73-1.69,2.44-1.66,4l0,0c-1.76.07-1.7,1.26-1.55,2.51l.06,0C422.71,444.78,423.26,447,422.71,448.51Z" transform="translate(-127.77 -120.75)"/><path class="cls-9" d="M227.53,328.52c4.41-10.82,11.17-20.09,19-28.68a102.89,102.89,0,0,1,25.85-20.93c2.95-1.65,5.47-4.1,8.88-5-3.27,2.67-5.73,6.09-8.56,9.15C259,297.86,245,312.41,231.11,327A4.74,4.74,0,0,1,227.53,328.52Z" transform="translate(-127.77 -120.75)"/><path class="cls-10" d="M227.53,328.52a4.74,4.74,0,0,0,3.58-1.5C245,312.41,259,297.86,272.67,283.08c2.83-3.06,5.29-6.48,8.56-9.15a12,12,0,0,1,5.61-2.26c-5.23,4.47-8.6,10.7-14.18,14.87a2.77,2.77,0,0,0-.85,3.76c-6.2,5-12.54,9.84-18.2,15.47-1.11,1.11-2,2.42-3.05,3.63-1.29.18-1.26,1.16-1.27,2.11-6,6.53-9.67,14.46-13.78,22.15-.68,1.27-1.4,2.53-2.1,3.8-.23-1-.78-2.19-1.75-1-3.93,4.57-9.68,7.53-11.43,14.15-.65,2.46-.55,5.59-2.86,7.56C219.31,347.76,222.19,337.72,227.53,328.52Z" transform="translate(-127.77 -120.75)"/><path class="cls-11" d="M392.63,423c-4.28,1-6.85,4.7-10.49,6.81-7.18,4.17-14.94,6.8-22.59,9.76A84.92,84.92,0,0,1,330.11,445c-8.25.12-16.7-.47-24.66-3.13-8.77-2.93-17.71-5.51-25.95-9.9A54.07,54.07,0,0,1,268,424.3c-1.11-1-2.07-1.63-3.45-.66a2.68,2.68,0,0,1-.92-2.15c0-.88,0-1.76.08-2.63,1.83.19,3,1.62,4.46,2.46,3.7,2.09,6.51,5.37,10.32,7.36,21.12,11,43.35,16,67,11.65,14-2.58,27.53-6.66,39.14-15.53,2.91-2.22,5.67-4.78,9.29-5.94v2.34Z" transform="translate(-127.77 -120.75)"/><path class="cls-12" d="M302,368.51c-.88,0-1.82-.12-2.4.8l-8.79,3.12a3.68,3.68,0,0,0-1-2.9c-6-6.27-9.32-14-12-22.07-.37-1.12-.29-2.81-2.16-2.91,2.17-3.89,5.71-6.19,9.5-8.2C287.65,348.72,292.91,359.63,302,368.51Z" transform="translate(-127.77 -120.75)"/><path class="cls-13" d="M357.11,190.21a4,4,0,0,1,3.85-2.87c2.11-.06,3.74-1.09,5.52-1.86a4.36,4.36,0,0,0,3.1-3.73c.17-3.21,2.73-4.27,4.36-6.16.6-.68,1.33-1.41,2.38-1s.78,1.55.8,2.43c.06,2.63.06,5.26.09,7.89-1,5.21-4.85,8.15-8.81,11-2.83-.1-4.06,1.37-4,4.1,0,2.89,0,5.78,0,8.67a3,3,0,0,0-2.94,2.16c-.57,2.36-2.3,3.32-4.2,4.23Z" transform="translate(-127.77 -120.75)"/><path class="cls-14" d="M263.68,418.86c0,.87-.06,1.75-.08,2.63a6.76,6.76,0,0,1-1.51-4.26c0-1.59,0-3.18,0-4.76,1.94.3,3.28,1.65,4.74,2.76,11.5,8.72,23.65,16.16,38,19.33a104.51,104.51,0,0,0,37.1,1.9c12.05-1.66,23.63-4.75,34.05-11.24,6.61-4.12,13.06-8.5,19.58-12.75-.1,1.1.36,2.35-.79,3.19-4.1,2.65-8.36,5.06-12.25,8a71.66,71.66,0,0,1-22.75,11.12A101.41,101.41,0,0,1,319.79,439a114.63,114.63,0,0,1-27-5.94c-10.15-3.6-18.66-9.95-27.34-16-.63-.44-1.26-1.46-2-.86C262.48,416.92,262.72,418,263.68,418.86Z" transform="translate(-127.77 -120.75)"/><path class="cls-15" d="M271.81,290.3a2.77,2.77,0,0,1,.85-3.76c5.58-4.17,8.95-10.4,14.18-14.87a5.22,5.22,0,0,1,3.22-1.44c3.14-1.81.86-4.85,1.63-7.21,2.48-2.54,4.24-5.9,7.9-7.16l.12,19.34-.93,1.4c-1.48.11-1.79,1.38-2.36,2.39C287.65,281.53,279.77,286,271.81,290.3Z" transform="translate(-127.77 -120.75)"/><path class="cls-12" d="M358,369.32a1.7,1.7,0,0,0-1.6-.81c.68-3.28,3.85-4.59,5.6-7.05a63,63,0,0,0,10.45-25.12c3.24,2,6.95,3.45,8.46,7.42-1.46.28-1.7,1.52-2.07,2.65-2.34,7.21-5.16,14.16-9.89,20.22-1.28,1.63-3.49,2.6-3.75,5Z" transform="translate(-127.77 -120.75)"/><path class="cls-16" d="M372.41,336.34A63,63,0,0,1,362,361.46c-1.75,2.46-4.92,3.77-5.6,7.05H342.41c.79-1.83,2.13-2.29,3.18-2.92,10.75-6.46,17-15.86,18.83-28.25.23-1.56.16-3.6,2.45-4A12.83,12.83,0,0,1,372.41,336.34Z" transform="translate(-127.77 -120.75)"/><path class="cls-16" d="M302,368.51c-9.12-8.88-14.38-19.79-16.87-32.16a12.78,12.78,0,0,1,5.55-3c2.44.56,2.2,2.71,2.5,4.42,2.1,12.31,8.16,21.87,19.22,28,1,.55,2.26.86,2.6,2.77Z" transform="translate(-127.77 -120.75)"/><path class="cls-17" d="M257.29,368.52c2.64,4,1.24,7.89-3.24,8.83-4.11.87-8.25,1.62-12.38,2.42-3.69,2.14,0,5.43-1.24,8-3.35.61-4,4.7-7.12,5.57.33-2.31-.51-4.46-1-6.63a13.37,13.37,0,0,1,7.79-15.22A37,37,0,0,1,257.29,368.52Z" transform="translate(-127.77 -120.75)"/><path class="cls-18" d="M275.66,344.55c1.87.1,1.79,1.79,2.16,2.91,2.72,8.07,6,15.8,12,22.07a3.68,3.68,0,0,1,1,2.9l-6.33,5.87c-4.88-7.51-11.07-14.24-13.57-23.15a3,3,0,0,0-1.9-1.92A31.37,31.37,0,0,1,275.66,344.55Z" transform="translate(-127.77 -120.75)"/><path class="cls-19" d="M365.16,371.62c.26-2.39,2.47-3.36,3.75-5,4.73-6.06,7.55-13,9.89-20.22.37-1.13.61-2.37,2.07-2.65,2.53,2.4,5.23,4.66,6.68,8a3.82,3.82,0,0,0-2.12,2.71c-2.3,7.71-6.66,14.22-11.75,20.3a4.31,4.31,0,0,0-1.39,2.74C370.38,375,367.6,373.49,365.16,371.62Z" transform="translate(-127.77 -120.75)"/><path class="cls-20" d="M291.73,172.83,288.61,176c-2,.69-1.92,2.42-1.72,4,.37,2.84-.92,4.77-2.93,6.52-1.33,1.15-1.87,1.7-3.06-.45-2.27-4.09-.7-8.31-1.23-12.42,1.41-4.59,4.05-8.06,8.76-9.65,4.93-1.18,9.95-.71,14.93-.77.76,0,1.75-.27,2.14.57.51,1.1-.52,1.65-1.21,2.18-2.87,2.23-5.12,5.77-9.68,4.5-.93-.26-1.68.59-2.17,1.44C292.2,172.19,292,172.51,291.73,172.83Z" transform="translate(-127.77 -120.75)"/><path class="cls-21" d="M343.75,281.34a13.3,13.3,0,0,1,1.95,18.48,12.55,12.55,0,0,1-17.35,2.52c.52-1.79-3.52-2.71-1.15-4.57,1.93-1.51,3.79-4.91,7.13-1.57.92.91,2.57.75,2.84-1.23l1.55-2.38c2.92-.86,1.6-2.48.59-3.87-1.45-2-1.38-3.54.92-4.85A39.09,39.09,0,0,0,343.75,281.34Z" transform="translate(-127.77 -120.75)"/><path class="cls-22" d="M343.75,281.34a39.09,39.09,0,0,1-3.52,2.53c-2.3,1.31-2.37,2.84-.92,4.85,1,1.39,2.33,3-.59,3.87.2-1.94,0-3.79-2.08-4.63a2.86,2.86,0,0,0-3.31.57,4.13,4.13,0,0,0-.72,4.46c.77,2.3,2.65,2.22,4.56,2-.27,2-1.92,2.14-2.84,1.23-3.34-3.34-5.2.06-7.13,1.57-2.37,1.86,1.67,2.78,1.15,4.57-7.94-5-7.89-15.77.1-22.42,3.91-1.31,7.83-2.46,12-1A5.7,5.7,0,0,1,343.75,281.34Z" transform="translate(-127.77 -120.75)"/><path class="cls-23" d="M415.59,427.16c-.08-5.4,3.78-9.65,4.42-14.75-.85-.82-1.37-.24-1.8.18-4.74,4.7-10.83,8.29-12.48,15.55-.22,1-.45,2.82-2.39,2.64,4.92-10.3,9.49-20.7,11.29-32.12.46-2.93,2.54-4.78,5.73-4.3,3.42.51,4.51,2.63,3.84,6C422.37,409.66,420,418.73,415.59,427.16Z" transform="translate(-127.77 -120.75)"/><path class="cls-24" d="M226.17,361.46a136.45,136.45,0,0,0-.87,36.61c-1.6-2.15-1.36-4.72-1.6-7.17,0-1.85.14-3.7,0-5.53-.17-2,1.06-5.25-.73-5.78-2.41-.71-3.87,2.53-5.75,4.05-.89.72-.67,1.93-.67,3,0,3.29,0,6.58,0,9.86-.44,2.81,1.35,5.43.67,8.25-2.55-11.73-4.1-23.5-1.41-35.43,1.66-4.41,6.15-6.09,9.09-9.28C226.51,358.26,225.77,360.88,226.17,361.46Z" transform="translate(-127.77 -120.75)"/><path class="cls-25" d="M292.44,171.88c.49-.85,1.24-1.7,2.17-1.44,4.56,1.27,6.81-2.27,9.68-4.5.69-.53,1.72-1.08,1.21-2.18-.39-.84-1.38-.58-2.14-.57-5,.06-10-.41-14.93.77,1.41-1.41,2.83-2.54,5.09-2.52,19.61.1,39.23.09,58.84.12v1.6l-16.77,0c-4.39,0-8.82.38-13.15-.11s-6.47,2.14-8.81,4.79c-1.52,1.71-1,2.52,1.21,2.51,5.32,0,10.64,0,16,0,1.84.29,3.82-.63,5.53.69-10.56.05-21.13.07-31.69.16C300.56,171.24,296.45,170.73,292.44,171.88Z" transform="translate(-127.77 -120.75)"/><path class="cls-26" d="M345.3,482.85c-11.86,2.66-23.73,2.12-35.55-.13-4.55-.86-9.12-1.77-13.34-3.83a2.19,2.19,0,0,0-1.63-1.59c-1.68-.3-3.7-.9-2.16-2.86,1.38-1.78,1.38-5.94,5.54-4.36a23.77,23.77,0,0,0,8,1.45c1.65-.34,3.08.58,4.62.84,1.93,1.65,5.41-.2,6.68,2.94-3.54-1.07-5.54,1.44-7.73,3.4-1.26,1.12-1.57,1.7.56,2.62,5.82,2.49,12,1.14,17.93,2.14,2.06.34,4.5.89,6.52-.69l3.21,0,6.42-.09Z" transform="translate(-127.77 -120.75)"/><path class="cls-27" d="M428.34,438.13c-.2-1.43,1.31-2.68.37-4.3-2.95,1.07-4.94,3.28-6.76,5.68a49.5,49.5,0,0,1-11.47,10.43c4.31-6.06,7.54-12.76,11.38-19.11,2.07-.09,1.54-2.17,2.42-3.17l2.43-7.2c2.92-.32,4.43-2.69,6.41-4.4.78-.67,1.43-2.49,2.76-1.27.88.8.31,2.18-.15,3.35-1.54,3.9-3.25,7.77-3.4,12.07C431.39,433.05,430.42,435.87,428.34,438.13Z" transform="translate(-127.77 -120.75)"/><path class="cls-28" d="M348.47,499.61,342,501.13H314.82c-6.71-1.41-13.58-2.09-20-4.65,0-.3,0-.6,0-.91,1.49-3.34,3.35-6.31,7.25-7.24h0c2.28,2.93,6.24,1.22,8.86,3.22l3.93-.07,3.17.09,1.46.1a41,41,0,0,0,17.75,0h0l4,0a13.65,13.65,0,0,1-6.39,1.53c-5.55,0-11.13.32-16.63-.25-4-.42-4.53,2.8-5.09,4.65s2.15,2.76,4.24,2.76H330C336.18,500.68,342.32,500,348.47,499.61Z" transform="translate(-127.77 -120.75)"/><path class="cls-27" d="M393.9,467.54c-3.46,7-9.19,12-14.52,17.47-.9.92-3.81,2.56.23,3.41-2.37,1.28-4,3.82-7,4-3.86.49-7.68,1.09-10.63,4l0,0c-3.12-1.07-.79-2.8-.07-3.48,3.87-3.6,5.85-9.27,11.64-10.8.18-.05.2-.72.29-1.11C381.36,477.73,387.11,471.87,393.9,467.54Z" transform="translate(-127.77 -120.75)"/><path class="cls-29" d="M226.17,361.46c-.4-.58.34-3.2-1.28-1.44-2.94,3.19-7.43,4.87-9.09,9.28-.4-3.86,1-7.45,1.57-11.18,2.31-2,2.21-5.1,2.86-7.56,1.75-6.62,7.5-9.58,11.43-14.15,1-1.14,1.52.06,1.75,1v0c-2.91,1.38-2.24,4.1-2.44,6.5Z" transform="translate(-127.77 -120.75)"/><path class="cls-21" d="M371.54,283c-3.77-1.37-7.55-2.73-11.32-4.11a5.18,5.18,0,0,1-3.14-3.7q.06-6.89.13-13.76c2.19,0,2.35-2.25,3.61-3.28.91-.74,1.73-2,2.95-1.58s.43,1.85.56,2.82c.46,3.32-.87,6.78.81,10l0,0a4.86,4.86,0,0,0,5.05,2.28,20,20,0,0,1,7.71,3.29c-1.65.21-3-.57-4.43-1.25-3.78-1.74-5.61-.77-7.5,4.08-1.19,3.08,2.52,1.88,3.44,3.35C369.82,281.82,371.49,281.59,371.54,283Z" transform="translate(-127.77 -120.75)"/><path class="cls-30" d="M262.08,412.47v4.76c-1.67-6.62-.5-13.33-.65-20,1.65-2.84-.31-6.21,1.38-9.51,5,5.74,9.29,11.78,16.05,15.16,1.63,3.85,3,7.81,5.66,11.16-4-.24-6.81-2.69-9.59-5.13-3.38-3-6.59-6.13-10-9.06-.87-.76-2.71-3.07-2.86.63v12Z" transform="translate(-127.77 -120.75)"/><path class="cls-30" d="M396.43,396.5q-.14,7.19-.28,14.37h-.63v-6.39a14.53,14.53,0,0,0,0-2c-.18-1.25.74-3.08-.53-3.62-1.48-.64-2.46,1.11-3.51,2.06-3.3,3-6.49,6.18-9.93,9-2.19,1.81-4.49,3.82-7.76,3.25a49.94,49.94,0,0,0,5.07-11.13c5.3-1.36,8.29-5.65,11.72-9.35,1.39-1.5,2.32-4.59,4-4.43,2.23.21,0,3.58,1.61,5l.27-.05C396.42,394.34,396.43,395.42,396.43,396.5Z" transform="translate(-127.77 -120.75)"/><path class="cls-31" d="M278.87,402.88c-6.76-3.38-11.09-9.42-16.05-15.16-1.69,3.3.27,6.67-1.38,9.51v-16c1.17-1.46.42-3.17.64-4.75,1.78.15,2.23,1.78,3,2.91a69.37,69.37,0,0,0,13,13.88Q278.49,398.09,278.87,402.88Z" transform="translate(-127.77 -120.75)"/><path class="cls-31" d="M396.15,393.31c-1.61-1.43.62-4.8-1.61-5-1.66-.16-2.59,2.93-4,4.43-3.43,3.7-6.42,8-11.72,9.35.22-2.93.43-5.85.65-8.78a65.77,65.77,0,0,0,12-12.67c1.13-1.55,1.93-3.49,4-4.12h0c.3,2.4-.69,4.91.65,7.21l.25-.07,0,2.48Z" transform="translate(-127.77 -120.75)"/><path class="cls-32" d="M432.33,430.21c.15-4.3,1.86-8.17,3.4-12.07.46-1.17,1-2.55.15-3.35-1.33-1.22-2,.6-2.76,1.27-2,1.71-3.49,4.08-6.41,4.4l1.56-4q2-7.59,4-15.18c1.64,0,2.38-1.36,3.45-2.24,1.45-1.19,2.31-3.19,4.53-3.35-.15,3.26-1.3,6.45-.72,9.76C438.68,414.16,435.75,422.25,432.33,430.21Z" transform="translate(-127.77 -120.75)"/><path class="cls-33" d="M373.89,481c-.09.39-.11,1.06-.29,1.11-5.79,1.53-7.77,7.2-11.64,10.8-.72.68-3,2.41.07,3.48-2,.75-3.91,1.83-6.16,1.63-3.38.23-6.76.53-10.14.68-2.05.09-2.5-1-1-2.27,2.94-2.46,4.21-7.26,9.31-6.84.18,0,.43-.85.65-1.3l0,0c1.62-.5,4.05,1.38,4.83-1.63Z" transform="translate(-127.77 -120.75)"/><path class="cls-34" d="M334.79,482.78c-2,1.58-4.46,1-6.52.69-5.94-1-12.11.35-17.93-2.14-2.13-.92-1.82-1.5-.56-2.62,2.19-2,4.19-4.47,7.73-3.39,1.69-.89,3.57,0,5.31-.55h9.57c3.65.82,7-.47,10.39-1.5-1.53,3.52-4.7,2-7.23,2.27-2.28.21-8.95,4.79-8.23,6,1.51,2.59,4.43.69,6.68,1.2A3.47,3.47,0,0,0,334.79,482.78Z" transform="translate(-127.77 -120.75)"/><path class="cls-35" d="M431.53,367.74c-.55-3-1.17-5.95-1.63-8.95-.51-3.32.49-6,4.2-6.31s5.06,2.22,5.48,5.42a15.39,15.39,0,0,1,0,2.35c-.73,3,.92,6.05-.08,9.07l-4.8,4C431.92,372.41,433.38,369.15,431.53,367.74Z" transform="translate(-127.77 -120.75)"/><path class="cls-36" d="M297.23,314.85a10.54,10.54,0,0,1,1.59,0c3.35.51,7.24,1.51,7.89,4.76.26,1.33-4.71,2.58-7.6,2.32-3.45-.31-5.76,1.49-8,3.55-1.75,1.6-3.89,3.87-6,2.2-1.86-1.49-.3-4.16.8-6.13A12.36,12.36,0,0,1,297.23,314.85Z" transform="translate(-127.77 -120.75)"/><path class="cls-37" d="M352.36,163.16v-1.6c2.79-.06,5.58,0,8.36-.2,5.21-.3,9,2.36,12.38,5.82-1.33,0-2.1-1.05-3.13-1.61-1.44-.78-2.75-1.16-3.63.71s-4.76,2.51-2,5.6a27.52,27.52,0,0,0-7-.72c-6.7,0-13.4-.08-20.1-.12,1.67-1.29,3.74-1,5.38-.58,5.53,1.37,7.45-3.54,10.78-5.89C354.35,163.92,353.17,163.34,352.36,163.16Z" transform="translate(-127.77 -120.75)"/><path class="cls-38" d="M274,467c-2.83-1.89-5.76-3.67-8-6.33-.73-1.44-1.21-3.11-3.15-3.45h0c-.31-4.06,2.87-5.44,5.56-7.2a126.84,126.84,0,0,1,12.71,10.42C277.28,461,276.3,464.74,274,467Z" transform="translate(-127.77 -120.75)"/><path class="cls-39" d="M306.21,471.53a23.77,23.77,0,0,1-8-1.45c-4.16-1.58-4.16,2.58-5.54,4.36-1.54,2,.48,2.56,2.16,2.86a2.19,2.19,0,0,1,1.63,1.59c-4.68-1.28-9.26-2.77-12.79-6.37-.56-1.68-1.88-1.81-3.35-1.66l-2.36-1.34c2.21-2.73,3.91-6.17,8.24-6l0,0c.65,2.71,3,2.18,4.84,2.48Z" transform="translate(-127.77 -120.75)"/><path class="cls-40" d="M399.41,302.51l-8.73-7.4a7.31,7.31,0,0,0-.52-2.2c-.64-1-3.27-1.4-1.62-3.13s1.74-5.34,5.44-4.4l0,0c1.51,3.05,4.45,4.25,7.26,5.62,4.16,4.15,8.83,7.81,12.15,12.76l-3.47-2.34a26.73,26.73,0,0,0-3.15-3.47c-1.25-1-2.05-3.84-4.26-2.11C400.48,297.39,397.43,298.93,399.41,302.51Z" transform="translate(-127.77 -120.75)"/><path class="cls-41" d="M241.17,427.11c-2.34-4.87-4.66-9.75-5.55-15.16a34.43,34.43,0,0,0-1.51-10.67c-1.15-.85-.69-2.09-.78-3.2,3.24-.76,4.21-4.41,7.14-5.57.11,2.22-.38,4.58,1.51,6.37a33.47,33.47,0,0,0,2.47,8.85l1.74,7.11c-2.63-1.38-1.95-4.74-3.9-6.52-5.45,4.3-5.45,4.3-3.38,10.53C239.81,421.56,241.51,424.06,241.17,427.11Z" transform="translate(-127.77 -120.75)"/><path class="cls-42" d="M371.54,283c-.05-1.44-1.72-1.21-2.1-1.82-.92-1.47-4.63-.27-3.44-3.35,1.89-4.85,3.72-5.82,7.5-4.08,1.46.68,2.78,1.46,4.43,1.25,3.07.58,5,2.93,7.29,4.72-3.8.9-6,3.71-5.7,7.3Z" transform="translate(-127.77 -120.75)"/><path class="cls-43" d="M309.17,229.51c-1.62-.8-1.73-2.24-1.62-3.78,0-2.1.21-4.2.05-6.28-.45-5.55,3.41-8.1,7.21-10.73,1,4.66.8,9.4.8,14.12C315.61,228.88,315.06,229.44,309.17,229.51Z" transform="translate(-127.77 -120.75)"/><path class="cls-42" d="M241.17,427.11c.34-3.05-1.36-5.55-2.26-8.26-2.07-6.23-2.07-6.23,3.38-10.53,2,1.78,1.27,5.14,3.9,6.52l1.55,3.9c.22,1.15.51,2.29.63,3.45.34,3.25-2.1,4.94-4.08,6.79-1.73,1.62-1.7-1.47-3-1.33A.44.44,0,0,1,241.17,427.11Z" transform="translate(-127.77 -120.75)"/><path class="cls-44" d="M314.81,208.72c-3.8,2.63-7.66,5.18-7.21,10.73.16,2.08,0,4.18-.05,6.28-1-8.57-.4-17.16-.29-25.74a4.41,4.41,0,0,1,2.8-4H314l.83.76C316.19,200.72,315.63,204.72,314.81,208.72Z" transform="translate(-127.77 -120.75)"/><path class="cls-45" d="M267,470.75c3.74,1.69,6.28,5,9.72,7.12-1.73.14-3-.82-4.25-1.8s-2.39-.81-3.74.36c-2.79,2.39-4.32,4.43.12,6.59.52.25.8,1,1.2,1.49a37.46,37.46,0,0,1-10.44-7.12,5.59,5.59,0,0,0-4.08-4.11l.1.05a5.3,5.3,0,0,1,7.29-5.76h0C263.53,469.57,264.67,470.92,267,470.75Z" transform="translate(-127.77 -120.75)"/><path class="cls-46" d="M229.39,416.44a10,10,0,0,1,1.59,4.78c-2,.32-.9-4-3.43-2.44-2.91,1.75-5.91,3.69-3.76,8a13,13,0,0,1,.67,3.41,75.12,75.12,0,0,1-5.59-16.77c-.09-3-.16-5.89,3-7.54,1-.5,1.34-2.31,2.86-1.45,1.13.63,1.24,1.87,1.4,3.12C226.57,410.74,227.05,413.94,229.39,416.44Z" transform="translate(-127.77 -120.75)"/><path class="cls-47" d="M257.35,436.41c2.52,2.21,3.87,5.26,5.72,8-2,0-2.37-1.87-3.31-3.05-.58-.73-1.29-2-2-.77-1.41,2.31-4.81,3.68-3.73,7.27a17.55,17.55,0,0,1-5.56-8.07,6.78,6.78,0,0,0-1.72-3.94c-2.45-3.43.62-5,2.45-6.82,2.68-2.72,2,1.67,3.46,1.69.27,0,.53.05.79.07l-.05,0C253.77,433.28,254.84,435.34,257.35,436.41Z" transform="translate(-127.77 -120.75)"/><path class="cls-48" d="M364.36,171.88c-2.78-3.09,1.14-3.8,2-5.6s2.19-1.49,3.63-.71c1,.56,1.8,1.64,3.13,1.61,5.48,5,5.91,11.12,4.11,17.77,0-2.62,0-5.25-.09-7.88,0-.88.28-1.95-.8-2.43s-1.78.27-2.38,1c-1.63,1.89-4.19,2.95-4.36,6.16a4.36,4.36,0,0,1-3.1,3.73c3.1-5.82,2.78-8.89-1.35-12.7Z" transform="translate(-127.77 -120.75)"/><path class="cls-49" d="M354.73,488.32c-.22.45-.47,1.31-.65,1.3-5.1-.42-6.37,4.38-9.31,6.84-1.54,1.28-1.09,2.36,1,2.27,3.38-.15,6.76-.45,10.14-.68a14.28,14.28,0,0,1-7.4,1.56c-6.15.38-12.29,1.07-18.47.74.33-3.24,4.45-3.94,4.79-7.16a13.65,13.65,0,0,0,6.39-1.53c1.34-.6,3.41.62,4.08-1.65Z" transform="translate(-127.77 -120.75)"/><path class="cls-17" d="M229.39,416.44c-2.34-2.5-2.82-5.7-3.23-8.88-.16-1.25-.27-2.49-1.4-3.12-1.52-.86-1.9.95-2.86,1.45-3.19,1.65-3.12,4.58-3,7.54a19.88,19.88,0,0,1-1.66-8.7c.68-2.82-1.11-5.44-.67-8.25,2.77-1.37,3.86-4.9,7.16-5.58.24,2.45,0,5,1.6,7.17Q227.34,407.25,229.39,416.44Z" transform="translate(-127.77 -120.75)"/><path class="cls-50" d="M409.89,301.4l3.47,2.34a11.78,11.78,0,0,1,4.22,5.09c.94,2.42.62,4.74-1.65,6.35s-4.48,1.11-6.4-.77A21.12,21.12,0,0,1,405,308C403.87,303.75,408.12,303.49,409.89,301.4Z" transform="translate(-127.77 -120.75)"/><path class="cls-51" d="M254,447.82c-1.08-3.59,2.32-5,3.73-7.27.73-1.2,1.44,0,2,.77.94,1.18,1.28,3,3.31,3.05a23.4,23.4,0,0,1,5.36,5.65c-2.69,1.76-5.87,3.14-5.56,7.2A36.36,36.36,0,0,1,254,447.82Z" transform="translate(-127.77 -120.75)"/><path class="cls-52" d="M364.36,171.88l.77.9-73.4.05c.24-.32.47-.64.71-1,4-1.15,8.12-.64,12.2-.68,10.56-.09,21.13-.11,31.69-.15h.92c6.7,0,13.4.14,20.1.12A27.52,27.52,0,0,1,364.36,171.88Z" transform="translate(-127.77 -120.75)"/><path class="cls-53" d="M270.05,484.51c-.4-.51-.68-1.24-1.2-1.49-4.44-2.16-2.91-4.2-.12-6.59,1.35-1.17,2.37-1.43,3.74-.36s2.52,1.94,4.25,1.8a23.39,23.39,0,0,1,6.25,3.2c-3.38,1.32-6.09,3.17-5.78,7.38A20.67,20.67,0,0,1,270.05,484.51Z" transform="translate(-127.77 -120.75)"/><path class="cls-54" d="M248.47,466.84a25.93,25.93,0,0,1-6.46-7c-.41-5,1.19-7.3,5.69-8.23h0c.5,1.83,1.12,3.55,3.31,4l7.19,8a4.53,4.53,0,0,1-1.48-.35Q250.14,458.86,248.47,466.84Z" transform="translate(-127.77 -120.75)"/><path class="cls-55" d="M302.09,488.32c-3.9.93-5.76,3.9-7.25,7.24-3.53-.92-6.67-3.16-10.49-3.11l0,.06c-1.11-2.13-.35-3.63.92-5.63,2.08-3.28,4.73-1.52,7.18-1.74l0,0c1,2.33,3.12,1.51,4.89,1.61l4.6.9C302,487.86,302,488.09,302.09,488.32Z" transform="translate(-127.77 -120.75)"/><path class="cls-56" d="M421.81,334.19c-1.55-2.42-3.31-4.72-3.31-7.82,0-2.22.86-3.92,2.94-4.62s4.16-.7,5.33,1.74c.42,1.87.2,4.05,2.44,5l0-.06C428.65,333.63,425.62,336,421.81,334.19Z" transform="translate(-127.77 -120.75)"/><path class="cls-57" d="M290.81,197.53,288.43,196c.18-1.84-.62-2.65-2.48-2.36l0,0c.06-1.33-1.93-2.79.33-4,1.53-.82,2.24-3.78,4.3-2.76,2.5,1.23,5.17.89,7.63,1.78a1.53,1.53,0,0,1,1.44,1.54l-.09,1.75c-3.77,2.16-6.47,5.11-7.15,9.57C290.93,200.59,292.37,198.45,290.81,197.53Z" transform="translate(-127.77 -120.75)"/><path class="cls-58" d="M290.81,197.53c1.56.92.12,3.06,1.63,4,.5,5.31-1,10.73.8,16-1.73,6.06-.36,12.25-.8,18.37v12a71.8,71.8,0,0,0-.75,15.15c-.77,2.36,1.51,5.4-1.63,7.21,1-1.58.67-3.34.67-5Q290.79,231.36,290.81,197.53Z" transform="translate(-127.77 -120.75)"/><path class="cls-59" d="M364.35,208.72c0-2.89,0-5.78,0-8.67,0-2.73,1.22-4.2,4-4.1C366,197,366,199.08,366,201.29q0,34.07-.07,68.13l-.79,0,0,0c0-7.28,0-14.55,0-21.83,0-1.52.59-3.2-.77-4.52V208.72Z" transform="translate(-127.77 -120.75)"/><path class="cls-60" d="M234.92,430.84c1.92,3.68,4.76,6.89,5.7,11.08l-.91.11c-.11-2-1.57-3.31-2.45-4.91-.55-1-1.3-1.5-2.14-.44-1.54,1.95-4.06,3-5.05,5.41-.54-1.29-1.08-2.58-1.61-3.88-2.5-4.82-2.18-8.82,3.26-11.36l.8.8C233.39,428.66,232.86,430.72,234.92,430.84Z" transform="translate(-127.77 -120.75)"/><path class="cls-61" d="M239.71,442l.91-.11h0c-.1,1.24-.14,2.44,1.62,2.44l0,0a6.7,6.7,0,0,0,4.15,5.62l1.39,1.66c-4.5.93-6.1,3.26-5.69,8.23L236.4,452c-1.84-3.79-.61-6.66,2.66-8.94C239.36,442.81,239.5,442.36,239.71,442Z" transform="translate(-127.77 -120.75)"/><path class="cls-62" d="M379.52,287.05c-.3-3.59,1.9-6.4,5.7-7.3l-.06,0a10,10,0,0,0,6.49,4,3,3,0,0,1,2.33,1.6c-3.7-.94-3.86,2.75-5.44,4.4s1,2.09,1.62,3.13a7.31,7.31,0,0,1,.52,2.2c-2.35-1-3.57-3.34-5.59-4.73A6.51,6.51,0,0,0,379.5,287Z" transform="translate(-127.77 -120.75)"/><path class="cls-63" d="M233.33,398.08c.09,1.11-.37,2.35.78,3.2l0,4.08a79.51,79.51,0,0,1-2.56-29.95c.27-2.8,2.34-4,4.82-4.63q8.13-1.92,16.3-3.74a4.31,4.31,0,0,1,4.65,1.48,37,37,0,0,0-17.2,2.92,13.37,13.37,0,0,0-7.79,15.22c.5,2.17,1.34,4.32,1,6.63C233.32,394.89,233.33,396.48,233.33,398.08Z" transform="translate(-127.77 -120.75)"/><path class="cls-64" d="M231.72,426.85c-5.44,2.54-5.76,6.54-3.26,11.36a21.8,21.8,0,0,1-4-8,13,13,0,0,0-.67-3.41c-2.15-4.32.85-6.26,3.76-8,2.53-1.52,1.45,2.76,3.43,2.44l0,0Q231.34,424,231.72,426.85Z" transform="translate(-127.77 -120.75)"/><path class="cls-65" d="M248.47,466.84q1.65-8,8.25-3.62a4.53,4.53,0,0,0,1.48.35,15.8,15.8,0,0,1,4.72,4,5.3,5.3,0,0,0-7.29,5.76,11.71,11.71,0,0,1-4.78-4,2.19,2.19,0,0,0-2.39-2.5Z" transform="translate(-127.77 -120.75)"/><path class="cls-25" d="M298.24,188.67c-2.46-.89-5.13-.55-7.63-1.78-2.06-1-2.77,1.94-4.3,2.76-2.26,1.21-.27,2.67-.33,4-6.47-3.78-9.06-12-6.31-20,.53,4.11-1,8.33,1.23,12.42,1.19,2.15,1.73,1.6,3.06.45,2-1.75,3.3-3.68,2.93-6.52-.2-1.55-.31-3.28,1.72-4-.79,7.87.29,9.41,7.74,11.38A6.73,6.73,0,0,1,298.24,188.67Z" transform="translate(-127.77 -120.75)"/><path class="cls-66" d="M421.81,334.19c3.81,1.8,6.84-.56,7.35-5.73,1.62,1.64,2.24,3.86,3.17,5.86,1.39,3,.36,5.39-2.46,7l-3.94-.16C423.61,339.42,422.67,336.83,421.81,334.19Z" transform="translate(-127.77 -120.75)"/><path class="cls-67" d="M409.89,301.4c-1.77,2.09-6,2.35-4.86,6.6l-5.62-5.49c-2-3.58,1.07-5.12,3.07-6.69,2.21-1.73,3,1.12,4.26,2.11A26.73,26.73,0,0,1,409.89,301.4Z" transform="translate(-127.77 -120.75)"/><path class="cls-58" d="M299.59,192l.09-1.75c1.1,1.25.72,2.78.72,4.2q0,38.28,0,76.58c0,1.42.36,2.94-.7,4.21l-.12-19.34V242.29c0-3.73,0-7.47,0-11.2,0-4.37.1-8.74,0-13.11,0-1.37.83-3.29-.72-4-1.27-.57-2,1.53-3.23,1.92,5.06-4.24,3.95-10.06,4-15.59C299.64,197.54,299.6,194.75,299.59,192Z" transform="translate(-127.77 -120.75)"/><path class="cls-62" d="M239.71,442c-.21.33-.35.78-.65,1-3.27,2.28-4.5,5.15-2.66,8.94a22.27,22.27,0,0,1-4.78-7.25c.09-1.24.27-2.54-1.56-2.64v0c1-2.44,3.51-3.46,5.05-5.41.84-1.06,1.59-.55,2.14.44C238.14,438.72,239.6,440,239.71,442Z" transform="translate(-127.77 -120.75)"/><path class="cls-59" d="M357.21,261.46q-.07,6.89-.13,13.76c-1.06-1.26-.71-2.79-.71-4.21q0-38.3,0-76.6c0-1.42-.38-2.95.72-4.2q0,12.45.1,24.9v46.35Z" transform="translate(-127.77 -120.75)"/><path class="cls-68" d="M292.5,485.14c-2.45.22-5.1-1.54-7.18,1.74-1.27,2-2,3.5-.92,5.63-1.71-.18-3.37-.44-4-2.43-.19-2.28-1.92-1.57-3.23-1.66v0c-.31-4.21,2.4-6.06,5.78-7.38h-.05c.77,2.68,3.26,1.8,5,2.42C289.68,483.44,291.07,484.33,292.5,485.14Z" transform="translate(-127.77 -120.75)"/><path class="cls-69" d="M439.46,369.32c1-3-.65-6.05.08-9.07,2.07,9.61,3.79,19.28,2.42,29.13-.74,5.36-.43,10.9-2.43,16.07-.58-3.31.57-6.5.72-9.76,0-7.28,0-14.57,0-21.85C440.22,372.32,440.82,370.63,439.46,369.32Z" transform="translate(-127.77 -120.75)"/><path class="cls-70" d="M314.81,208.72c.82-4,1.38-8,0-12,1.89,1,2.22,2.81,2.22,4.72,0,7.52.12,15,0,22.56-.12,5.92-3.12,7.92-7.85,5.51,5.89-.07,6.44-.63,6.44-6.67C315.61,218.12,315.82,213.38,314.81,208.72Z" transform="translate(-127.77 -120.75)"/><path class="cls-71" d="M253.43,430.75c-.26,0-.52-.06-.79-.07-1.43,0-.78-4.41-3.46-1.69-1.83,1.86-4.9,3.39-2.45,6.82a6.78,6.78,0,0,1,1.72,3.94,42.79,42.79,0,0,1-7.13-12.1c1.27-.14,1.24,3,3,1.33,2-1.85,4.42-3.54,4.08-6.79-.12-1.16-.41-2.3-.63-3.45Q250.59,424.74,253.43,430.75Z" transform="translate(-127.77 -120.75)"/><path class="cls-69" d="M431.53,367.74c1.85,1.41.39,4.67,3.13,5.57-.57.84-1.69,1.35-1.57,2.62.39,4.16-.93,8.45,1.09,12.51a4.48,4.48,0,0,1-.15,4.91c-1.95,2.42-1.81,5.15-1.76,7.93q-2,7.59-4,15.18l-.88,0c2.33-7.83,3.71-15.92,5.19-23.89,1.15-6.17-.37-12.83-.71-19.28C431.78,371.42,431.65,369.58,431.53,367.74Z" transform="translate(-127.77 -120.75)"/><path class="cls-72" d="M286.15,463.53c-4.33-.18-6,3.26-8.24,6A10.48,10.48,0,0,1,274,467c2.32-2.26,3.3-6,7.16-6.56A17.53,17.53,0,0,1,286.15,463.53Z" transform="translate(-127.77 -120.75)"/><path class="cls-73" d="M314.82,501.12H342A48.71,48.71,0,0,1,314.82,501.12Z" transform="translate(-127.77 -120.75)"/><path class="cls-74" d="M319.48,491.65l-1.46-.1c0-.52,0-1,0-1.54l19.24,0v1.59h0Z" transform="translate(-127.77 -120.75)"/><path class="cls-75" d="M314.81,327l-.85-.09c.05-.48.1-.95.14-1.43,8-.71,16-1.69,24-.21l-1.79.18A75.65,75.65,0,0,0,314.81,327Z" transform="translate(-127.77 -120.75)"/><path class="cls-76" d="M365.92,465.93l-.77,1.67a7,7,0,0,0-2.62.61c-5.62,2.28-11.18,4.84-17.42,4.93a4.22,4.22,0,0,0,.14-.69C352.44,471.23,359.11,468.36,365.92,465.93Z" transform="translate(-127.77 -120.75)"/><path class="cls-77" d="M345.25,472.45a4.22,4.22,0,0,1-.14.69h0l-2.36.15c-3.39,1-6.74,2.32-10.39,1.5,1.88-3.06,5.22-1.27,7.77-2.25C341.65,472,343.54,472.44,345.25,472.45Z" transform="translate(-127.77 -120.75)"/><path class="cls-78" d="M360.39,478.87c4.35-2.05,7.85-5.82,12.92-6.42C369.74,476.08,365.12,477.6,360.39,478.87Z" transform="translate(-127.77 -120.75)"/><path class="cls-79" d="M340.41,279c-4.13-1.5-8.05-.35-12,1a9.78,9.78,0,0,1,8.33-3.36C338.62,276.71,339.76,277.31,340.41,279Z" transform="translate(-127.77 -120.75)"/><path class="cls-63" d="M242,398.88c-1.89-1.79-1.4-4.15-1.51-6.37,0-1.6,0-3.19,0-4.79,1.25-2.52-2.45-5.81,1.24-8-1.23,3.4-.44,6.88-.4,10.33C240.73,393.09,241.78,396,242,398.88Z" transform="translate(-127.77 -120.75)"/><path class="cls-80" d="M242,398.88c-.2-2.93-1.25-5.79-.71-8.78,1.71,5.76,2.3,11.72,3.18,17.63A33.47,33.47,0,0,1,242,398.88Z" transform="translate(-127.77 -120.75)"/><path class="cls-81" d="M322.82,474.77c-1.74.52-3.62-.34-5.31.55-1.27-3.15-4.75-1.3-6.68-2.95,3.56-.42,7,.75,10.51.9A1.47,1.47,0,0,1,322.82,474.77Z" transform="translate(-127.77 -120.75)"/><path class="cls-82" d="M427.39,416.43l.88,0-1.56,4-2.43,7.2-.91,0A64.65,64.65,0,0,1,427.39,416.43Z" transform="translate(-127.77 -120.75)"/><path class="cls-83" d="M337.22,491.62V490l6.24-.18,1.8.16c-.67,2.27-2.74,1.05-4.08,1.65Z" transform="translate(-127.77 -120.75)"/><path class="cls-27" d="M386.78,484.48a14.13,14.13,0,0,1,8.69-5.71A31,31,0,0,1,386.78,484.48Z" transform="translate(-127.77 -120.75)"/><path class="cls-33" d="M362,496.45c2.95-2.9,6.77-3.5,10.63-4A34.61,34.61,0,0,1,362,496.45Z" transform="translate(-127.77 -120.75)"/><path class="cls-68" d="M284.35,492.45c3.82-.05,7,2.19,10.49,3.11l0,.91A31.38,31.38,0,0,1,284.35,492.45Z" transform="translate(-127.77 -120.75)"/><path class="cls-84" d="M405.9,393.29v-7c2.19,2.71,1.47,5.11,2.39,7Z" transform="translate(-127.77 -120.75)"/><path class="cls-85" d="M302.09,488.32c0-.23-.1-.46-.14-.69,3.79.68,7.81.18,11.32,2.26l-2.49.11-8.72-1.69Z" transform="translate(-127.77 -120.75)"/><path class="cls-86" d="M345.26,490l-1.8-.16c3.55-2,7.58-1.55,11.4-2.22l-.15.71,0,0Z" transform="translate(-127.77 -120.75)"/><path class="cls-27" d="M379.58,488.45a9.12,9.12,0,0,1,7.23-4A20,20,0,0,1,379.58,488.45Z" transform="translate(-127.77 -120.75)"/><path class="cls-87" d="M395.52,410.87h.63c.36,3.68.13,7.23-2.23,10.33v-2.34c1.15-.84.69-2.09.8-3.2,1.15-.84.69-2.09.79-3.19C395.51,411.93,395.51,411.4,395.52,410.87Z" transform="translate(-127.77 -120.75)"/><path class="cls-88" d="M234.08,405.36l0-4.08A34.43,34.43,0,0,1,235.62,412,11,11,0,0,1,234.08,405.36Z" transform="translate(-127.77 -120.75)"/><path class="cls-62" d="M401.21,291c-2.81-1.37-5.75-2.57-7.26-5.62A22.26,22.26,0,0,1,401.21,291Z" transform="translate(-127.77 -120.75)"/><path class="cls-76" d="M358,478.76l2.46.08a21.1,21.1,0,0,1-7.9,2.41l-.94-.15C353.23,479,356.06,480.12,358,478.76Z" transform="translate(-127.77 -120.75)"/><path class="cls-34" d="M351.59,481.1l.94.15a20.92,20.92,0,0,1-7.23,1.6l-.88-.18C346.57,481,349.11,481.19,351.59,481.1Z" transform="translate(-127.77 -120.75)"/><path class="cls-42" d="M391.65,283.78a10,10,0,0,1-6.49-4A16.31,16.31,0,0,1,391.65,283.78Z" transform="translate(-127.77 -120.75)"/><path class="cls-71" d="M257.35,436.41c-2.51-1.07-3.58-3.13-4-5.68C255.19,432.28,256.21,434.39,257.35,436.41Z" transform="translate(-127.77 -120.75)"/><path class="cls-62" d="M246.31,450a6.7,6.7,0,0,1-4.15-5.62A18.82,18.82,0,0,1,246.31,450Z" transform="translate(-127.77 -120.75)"/><path class="cls-65" d="M255.53,473.28a5.59,5.59,0,0,1,4.08,4.11C257.87,476.4,255.82,475.71,255.53,473.28Z" transform="translate(-127.77 -120.75)"/><path class="cls-10" d="M231,343.91c.2-2.4-.47-5.12,2.44-6.5C232.6,339.58,231.79,341.74,231,343.91Z" transform="translate(-127.77 -120.75)"/><path class="cls-42" d="M379.5,287a6.51,6.51,0,0,1,5.59,3.34A17,17,0,0,1,379.5,287Z" transform="translate(-127.77 -120.75)"/><path class="cls-89" d="M344.46,326.88l-1.68.14-2.37-.07c0-.51,0-1,0-1.55l3.92.05C344.35,325.93,344.4,326.4,344.46,326.88Z" transform="translate(-127.77 -120.75)"/><path class="cls-46" d="M231.72,426.85q-.39-2.84-.76-5.65c1.73,1.79,1.64,4.27,2.45,6.42l-.89,0Z" transform="translate(-127.77 -120.75)"/><path class="cls-90" d="M314,196h-3.93C311.36,193.4,312.67,193.42,314,196Z" transform="translate(-127.77 -120.75)"/><path class="cls-91" d="M310.78,490l2.49-.11,1.51.16c0,.47.05.94.07,1.41l-3.93.07C310.88,491,310.83,490.51,310.78,490Z" transform="translate(-127.77 -120.75)"/><path class="cls-92" d="M340.37,325.4c0,.52,0,1,0,1.55-1.44-.27-3.4.91-4.06-1.47l1.79-.18Z" transform="translate(-127.77 -120.75)"/><path class="cls-78" d="M370.69,463.45c-.62,2.7-2.92,2.21-4.8,2.51A13.47,13.47,0,0,1,370.69,463.45Z" transform="translate(-127.77 -120.75)"/><path class="cls-93" d="M385.2,433.51a8.89,8.89,0,0,1,4-4.28C388.6,431.34,387,432.48,385.2,433.51Z" transform="translate(-127.77 -120.75)"/><path class="cls-49" d="M354.71,488.34l.15-.71,4.68-.92C358.76,489.72,356.33,487.84,354.71,488.34Z" transform="translate(-127.77 -120.75)"/><path class="cls-72" d="M291,466c-1.88-.3-4.19.23-4.84-2.48A13.34,13.34,0,0,1,291,466Z" transform="translate(-127.77 -120.75)"/><path class="cls-53" d="M287.94,483.48c-1.76-.62-4.25.26-5-2.42C284.7,481.65,286.57,482,287.94,483.48Z" transform="translate(-127.77 -120.75)"/><path class="cls-65" d="M267,470.75c-2.33.17-3.47-1.18-4.1-3.19A10.84,10.84,0,0,1,267,470.75Z" transform="translate(-127.77 -120.75)"/><path class="cls-94" d="M396.17,383.72c-1.34-2.3-.35-4.81-.65-7.21h.63Q396.15,380.11,396.17,383.72Z" transform="translate(-127.77 -120.75)"/><path class="cls-95" d="M425.93,341.2l3.94.16C428.41,345,427.19,342.72,425.93,341.2Z" transform="translate(-127.77 -120.75)"/><path class="cls-27" d="M422.71,448.51c.55-1.52,0-3.73,2.54-4A7.26,7.26,0,0,1,422.71,448.51Z" transform="translate(-127.77 -120.75)"/><path class="cls-51" d="M262.86,457.22c1.94.34,2.42,2,3.15,3.45C264.49,459.94,263,459.21,262.86,457.22Z" transform="translate(-127.77 -120.75)"/><path class="cls-96" d="M314.85,491.46c0-.47-.05-.94-.07-1.41l3.2,0c0,.51,0,1,0,1.54Z" transform="translate(-127.77 -120.75)"/><path class="cls-61" d="M251,455.57c-2.19-.41-2.81-2.13-3.31-4A10,10,0,0,1,251,455.57Z" transform="translate(-127.77 -120.75)"/><path class="cls-66" d="M429.21,328.52c-2.24-1-2-3.16-2.44-5C428.59,324.68,428.53,326.78,429.21,328.52Z" transform="translate(-127.77 -120.75)"/><path class="cls-97" d="M365.17,269.46l.79,0,4.26,2.32A4.86,4.86,0,0,1,365.17,269.46Z" transform="translate(-127.77 -120.75)"/><path class="cls-98" d="M314.1,325.51c0,.48-.09.95-.14,1.43a4.07,4.07,0,0,0-.78.11l-2.4-.12C311.2,324.85,312.76,325.44,314.1,325.51Z" transform="translate(-127.77 -120.75)"/><path class="cls-99" d="M344.46,326.88c-.06-.48-.11-.95-.17-1.43,1.34,0,2.94-.61,3.29,1.51h-3.2Z" transform="translate(-127.77 -120.75)"/><path class="cls-64" d="M232.52,427.65l.89,0a6.17,6.17,0,0,1,1.51,3.22C232.86,430.72,233.39,428.66,232.52,427.65Z" transform="translate(-127.77 -120.75)"/><path class="cls-25" d="M286,193.61c1.86-.29,2.66.52,2.48,2.36C286.94,195.88,286.77,194.4,286,193.61Z" transform="translate(-127.77 -120.75)"/><path class="cls-32" d="M423.37,427.62l.91,0c-.88,1-.35,3.08-2.42,3.17Z" transform="translate(-127.77 -120.75)"/><path class="cls-100" d="M396.43,396.5c0-1.08,0-2.16,0-3.24C397.63,394.34,399.26,395.41,396.43,396.5Z" transform="translate(-127.77 -120.75)"/><path class="cls-68" d="M297.35,486.73c-1.77-.1-3.85.72-4.89-1.61Z" transform="translate(-127.77 -120.75)"/><path class="cls-101" d="M310.78,326.93l2.4.12c-1.53,1.32-3.33.52-5,.64Z" transform="translate(-127.77 -120.75)"/><path class="cls-101" d="M344.38,327h3.2l1.84.73C347.72,327.55,345.89,328.42,344.38,327Z" transform="translate(-127.77 -120.75)"/><path class="cls-102" d="M296.42,279c.57-1,.88-2.28,2.36-2.39C298.93,278.32,297.93,278.91,296.42,279Z" transform="translate(-127.77 -120.75)"/><path class="cls-27" d="M426.72,442.09c0-1.58-.37-3.29,1.66-4C428.32,439.61,427.32,440.77,426.72,442.09Z" transform="translate(-127.77 -120.75)"/><path class="cls-103" d="M396.45,386.13l0-2.48c.76.18,1.47.42,1.36,1.42C397.7,385.85,397.07,386,396.45,386.13Z" transform="translate(-127.77 -120.75)"/><path class="cls-104" d="M405.9,393.29h2.39c-.09.66-.16,1.35-1,1.45C406.21,394.87,406,394.11,405.9,393.29Z" transform="translate(-127.77 -120.75)"/><path class="cls-53" d="M277.19,488.42c1.31.09,3-.62,3.23,1.66A5.55,5.55,0,0,1,277.19,488.42Z" transform="translate(-127.77 -120.75)"/><path class="cls-27" d="M425.19,444.57c-.15-1.25-.21-2.44,1.55-2.51A3.41,3.41,0,0,1,425.19,444.57Z" transform="translate(-127.77 -120.75)"/><path class="cls-62" d="M242.2,444.37c-1.76,0-1.72-1.2-1.62-2.44A3.18,3.18,0,0,1,242.2,444.37Z" transform="translate(-127.77 -120.75)"/><path class="cls-60" d="M230.06,442.06c1.83.1,1.65,1.4,1.56,2.64A3.89,3.89,0,0,1,230.06,442.06Z" transform="translate(-127.77 -120.75)"/><path class="cls-9" d="M249.29,311.51c0-.95,0-1.93,1.27-2.11A1.66,1.66,0,0,1,249.29,311.51Z" transform="translate(-127.77 -120.75)"/><path class="cls-54" d="M248.46,466.82a2.19,2.19,0,0,1,2.39,2.5Z" transform="translate(-127.77 -120.75)"/><path class="cls-72" d="M280.27,470.86c1.47-.15,2.79,0,3.35,1.66C282.28,472.42,281.33,471.53,280.27,470.86Z" transform="translate(-127.77 -120.75)"/><path class="cls-93" d="M390.72,427.54a4.54,4.54,0,0,1,1.54-3.07A2.53,2.53,0,0,1,390.72,427.54Z" transform="translate(-127.77 -120.75)"/><path class="cls-14" d="M265,424.51c1.37.64,1.67,1.87,1.81,3.2A4,4,0,0,1,265,424.51Z" transform="translate(-127.77 -120.75)"/><path class="cls-78" d="M351.59,481.1c-2.48.09-5-.06-7.17,1.57l-6.42.09a8.66,8.66,0,0,1,2.61-3.38,11.6,11.6,0,0,0,4.53-6.25h0c6.24-.09,11.8-2.65,17.42-4.93a7,7,0,0,1,2.62-.61c-.91,3.14-3.83,4.8-5.5,7.4-.78,1.21-1.9,2.14-1.68,3.76C356.06,480.12,353.23,479,351.59,481.1Z" transform="translate(-127.77 -120.75)"/><path class="cls-1" d="M379.49,393.3c-.22,2.93-.43,5.85-.65,8.78a49.94,49.94,0,0,1-5.07,11.13,31.93,31.93,0,0,1-14.26,8.66q-30.72.76-61.43,0l-4.82-1.51.05,0a58.3,58.3,0,0,1-8.78-6.37c-2.62-3.35-4-7.31-5.66-11.16q-.37-4.8-.77-9.58,1.32-4.76,2.63-9.5l3.78-5.5,6.33-5.87,8.79-3.12H358l7.2,2.3c2.44,1.87,5.22,3.33,7.13,5.86l4.86,7Zm-84.7-2.48c-1.34,2.6-2.19,5.24-.76,8.09,1,4.53,4.14,6.67,8.44,7.23s7.62-1.41,9.93-5.7c2.49-5.85.61-11.67-4.58-14.21-4.88-2.39-10.23-.52-13.06,4.57Zm68.77,8.08c.92-1.6,1.18-3.2,0-4.8-1-.89-.49-2.15-.81-3.21a9.45,9.45,0,0,0-12.58-4.83c-5.48,2.4-7.57,8.44-5,14.39,2.32,4.29,5.58,6.29,9.94,5.67S362.59,403.45,363.56,398.9Z" transform="translate(-127.77 -120.75)"/><path class="cls-94" d="M379.49,393.3l-2.34-8.83c7.32-6.66,11.69-15.27,15.87-24,.4-.84.66-1.74,1.07-2.57.14-.3.53-.49,1.42-1.25v19.86c-2.1.63-2.9,2.57-4,4.12A65.77,65.77,0,0,1,379.49,393.3Z" transform="translate(-127.77 -120.75)"/><path class="cls-94" d="M280.73,383.8q-1.31,4.74-2.63,9.5a69.37,69.37,0,0,1-13-13.88c-.78-1.13-1.23-2.76-3-2.91V357.42c1.57-.44,1.67.82,1.95,1.52a86.16,86.16,0,0,0,12.64,21.95C277.74,382.26,278.77,383.68,280.73,383.8Z" transform="translate(-127.77 -120.75)"/><path class="cls-101" d="M336.35,325.48c.66,2.38,2.62,1.2,4.06,1.47l2.37.07c.21,5.48-.1,10.62-3.94,15.3a13.27,13.27,0,0,1-20.08,0c-3.84-4.67-4.16-9.81-3.95-15.29A75.65,75.65,0,0,1,336.35,325.48Z" transform="translate(-127.77 -120.75)"/><path class="cls-105" d="M394.72,415.66c-.11,1.11.35,2.36-.8,3.2-3.62,1.16-6.38,3.72-9.29,5.94-11.61,8.87-25.17,12.95-39.14,15.53-23.68,4.37-45.91-.62-67-11.65-3.81-2-6.62-5.27-10.32-7.36-1.48-.84-2.63-2.27-4.46-2.46-1-.84-1.2-1.94-.24-2.73.72-.6,1.35.42,2,.86,8.68,6.09,17.19,12.44,27.34,16a114.63,114.63,0,0,0,27,5.94,101.41,101.41,0,0,0,39.93-4.21,71.66,71.66,0,0,0,22.75-11.12C386.36,420.72,390.62,418.31,394.72,415.66Z" transform="translate(-127.77 -120.75)"/><path class="cls-106" d="M357.21,238.26V215.11c1.9-.91,3.63-1.87,4.2-4.23a3,3,0,0,1,2.94-2.16v24C361.17,233.52,360.47,237.53,357.21,238.26Z" transform="translate(-127.77 -120.75)"/><path class="cls-14" d="M395.52,410.87c0,.53,0,1.06,0,1.6-6.52,4.25-13,8.63-19.58,12.75-10.42,6.49-22,9.58-34.05,11.24a104.51,104.51,0,0,1-37.1-1.9c-14.31-3.17-26.46-10.61-38-19.33-1.46-1.11-2.8-2.46-4.74-2.76v-2.4c6.44,3.4,11.83,8.32,18,12.14,19.75,12.21,41.14,15.42,63.73,12.38,16.57-2.22,31-9.53,44.21-19.49,2.38-1.79,4.42-4.21,7.48-5Z" transform="translate(-127.77 -120.75)"/><path class="cls-107" d="M299.59,242.29v13.57c-3.66,1.26-5.42,4.62-7.9,7.16a71.8,71.8,0,0,1,.75-15.15C295.92,247.41,296.53,243.28,299.59,242.29Z" transform="translate(-127.77 -120.75)"/><path class="cls-88" d="M240.43,387.72c0,1.6,0,3.19,0,4.79-2.93,1.16-3.9,4.81-7.14,5.57,0-1.6,0-3.19,0-4.79C236.46,392.42,237.08,388.33,240.43,387.72Z" transform="translate(-127.77 -120.75)"/><path class="cls-108" d="M337.17,295c-1.91.24-3.79.32-4.56-2a4.13,4.13,0,0,1,.72-4.46,2.86,2.86,0,0,1,3.31-.57c2.13.84,2.28,2.69,2.08,4.63Z" transform="translate(-127.77 -120.75)"/><path class="cls-109" d="M223.7,390.9c-3.3.68-4.39,4.21-7.16,5.58,0-3.28,0-6.57,0-9.86,0-1.05-.22-2.26.67-3,1.88-1.52,3.34-4.76,5.75-4.05,1.79.53.56,3.77.73,5.78C223.84,387.2,223.71,389.05,223.7,390.9Z" transform="translate(-127.77 -120.75)"/><path class="cls-110" d="M337.25,171h-.92c-1.71-1.33-3.69-.41-5.53-.7.22-3.31,3.35-4.67,4.79-7.17l16.77,0c.81.18,2,.76,1.05,1.41-3.33,2.35-5.25,7.26-10.78,5.89C341,170.06,338.92,169.75,337.25,171Z" transform="translate(-127.77 -120.75)"/><path class="cls-111" d="M335.59,163.18c-1.44,2.5-4.57,3.86-4.79,7.17-5.32,0-10.64,0-16,0-2.23,0-2.73-.8-1.21-2.51,2.34-2.65,4.47-5.29,8.81-4.79S331.2,163.18,335.59,163.18Z" transform="translate(-127.77 -120.75)"/><path class="cls-76" d="M345.14,473.13a11.6,11.6,0,0,1-4.53,6.25,8.66,8.66,0,0,0-2.61,3.38l-3.21,0a3.47,3.47,0,0,1-.79,0c-2.25-.51-5.17,1.39-6.68-1.2-.72-1.23,5.95-5.81,8.23-6,2.53-.24,5.7,1.25,7.23-2.27Z" transform="translate(-127.77 -120.75)"/><path class="cls-112" d="M334.79,493.19c-.34,3.22-4.46,3.92-4.79,7.16H317.31c-2.09,0-4.76-1-4.24-2.76s1.11-5.07,5.09-4.65C323.66,493.51,329.24,493.15,334.79,493.19Z" transform="translate(-127.77 -120.75)"/><path class="cls-96" d="M319.48,491.65l17.75,0A41,41,0,0,1,319.48,491.65Z" transform="translate(-127.77 -120.75)"/><path class="cls-55" d="M310.78,490c.05.51.1,1,.14,1.53-2.62-2-6.58-.29-8.86-3.22Z" transform="translate(-127.77 -120.75)"/><path class="cls-97" d="M357.21,261.46v-4c4.07-2.29,8-4.69,7.17-10.39a29.33,29.33,0,0,1,0-4c1.36,1.32.76,3,.77,4.52.06,7.28,0,14.55,0,21.83-1.68-3.22-.35-6.68-.81-10-.13-1,.64-2.38-.56-2.82s-2,.84-2.95,1.58C359.56,259.21,359.4,261.45,357.21,261.46Z" transform="translate(-127.77 -120.75)"/><path class="cls-113" d="M395.51,410.07c-3.06.82-5.1,3.24-7.48,5-13.24,10-27.64,17.27-44.21,19.49-22.59,3-44-.17-63.73-12.38-6.18-3.82-11.57-8.74-18-12.14v-5.59a18.21,18.21,0,0,1,3.58,2.44c8.19,9.16,19,14.36,29.91,19,12.76,5.5,26.3,6.73,40.31,5.89,18.75-1.11,34.6-8.63,49.59-19.05,3.61-2.51,5.79-6.66,10-8.32Z" transform="translate(-127.77 -120.75)"/><path class="cls-114" d="M395.51,404.48c-4.25,1.66-6.43,5.81-10,8.32-15,10.42-30.84,17.94-49.59,19.05-14,.84-27.55-.39-40.31-5.89-10.88-4.68-21.72-9.88-29.91-19a18.21,18.21,0,0,0-3.58-2.44v-4c3.66,3.26,7.17,6.71,11,9.73,6,4.75,12.19,9.37,20.22,10.2l-.05,0c1.11,1.75,3.26,1.5,4.77,2.48h.81c1,1.95,2.83,2.59,4.73,3.31,10.46,4,21.37,2.93,32.19,3.1,6.44.1,12.57-1.32,18.64-3.23,1.81-.56,3.46-1.36,4.36-3.18l.75-1a31.93,31.93,0,0,0,14.26-8.66c3.27.57,5.57-1.44,7.76-3.25,3.44-2.84,6.63-6,9.93-9,1.05-.95,2-2.7,3.51-2.06,1.27.54.35,2.37.53,3.62A14.53,14.53,0,0,1,395.51,404.48Z" transform="translate(-127.77 -120.75)"/><path class="cls-114" d="M293.31,420.41c-8-.83-14.2-5.45-20.22-10.2-3.84-3-7.35-6.47-11-9.73.15-3.7,2-1.39,2.86-.63,3.41,2.93,6.62,6.1,10,9.06,2.78,2.44,5.61,4.89,9.59,5.13A58.3,58.3,0,0,0,293.31,420.41Z" transform="translate(-127.77 -120.75)"/><path class="cls-82" d="M432.27,401.28c0-2.78-.19-5.51,1.76-7.93a4.48,4.48,0,0,0,.15-4.91c-2-4.06-.7-8.35-1.09-12.51-.12-1.27,1-1.78,1.57-2.62l4.8-4c1.36,1.31.76,3,.77,4.52.06,7.28,0,14.57,0,21.85-2.22.16-3.08,2.16-4.53,3.35C434.65,399.92,433.91,401.28,432.27,401.28Z" transform="translate(-127.77 -120.75)"/><path class="cls-115" d="M299.59,192c0,2.79.05,5.58,0,8.36,0,5.53,1.08,11.35-4,15.59l-2.4,1.6c-1.81-5.25-.3-10.67-.8-16C293.12,197.07,295.82,194.12,299.59,192Z" transform="translate(-127.77 -120.75)"/><path class="cls-116" d="M293.24,217.51l2.4-1.6c1.27-.39,2-2.49,3.23-1.92,1.55.7.69,2.62.72,4,.09,4.37,0,8.74,0,13.11-3.21.36-3.9,4.47-7.14,4.79C292.88,229.76,291.51,223.57,293.24,217.51Z" transform="translate(-127.77 -120.75)"/><path class="cls-117" d="M292.44,235.88c3.24-.32,3.93-4.43,7.14-4.79,0,3.73,0,7.47,0,11.2-3.06,1-3.67,5.12-7.15,5.58Z" transform="translate(-127.77 -120.75)"/><path class="cls-118" d="M364.35,243.07a29.33,29.33,0,0,0,0,4c.79,5.7-3.1,8.1-7.17,10.39V238.26c3.26-.73,4-4.74,7.14-5.57Z" transform="translate(-127.77 -120.75)"/><path class="cls-119" d="M298.84,422.86H298l.05-1q30.72.72,61.43,0l-.75,1c-3.16.24-6.53-.87-9.46.53-9.95,4.76-20.38,3.64-30.8,2.94C311.82,425.88,305.87,421.31,298.84,422.86Z" transform="translate(-127.77 -120.75)"/><path class="cls-120" d="M294.76,390.8c2.83-5.09,8.18-7,13.06-4.57,5.19,2.54,7.07,8.36,4.58,14.21-1.11-2.81-3.44-2.71-5.83-2.44.52-1.85.33-3.49-1.36-4.7-.09-.85-.39-1.51-1.39-1.58s-1.76.35-1.86,1.5c-2,1.16-1.83,3-1.48,4.85C299.56,394.87,298.3,391.94,294.76,390.8Z" transform="translate(-127.77 -120.75)"/><path class="cls-120" d="M345.18,400.45c-2.59-5.95-.5-12,5-14.39a9.45,9.45,0,0,1,12.58,4.83c-4,.74-4.28,4.37-5.63,7.18.36-1.88.48-3.68-1.48-4.85-.1-1.15-.76-1.58-1.86-1.5s-1.3.72-1.39,1.58c-1.7,1.21-1.86,2.86-1.37,4.7C348.48,397.42,346.1,397.2,345.18,400.45Z" transform="translate(-127.77 -120.75)"/><path class="cls-121" d="M357.11,398.07c1.35-2.81,1.64-6.44,5.63-7.18.32,1.06-.18,2.32.81,3.21,0,1.6,0,3.2,0,4.8-1,4.55-4.19,6.63-8.44,7.22s-7.62-1.38-9.94-5.67c.92-3.25,3.3-3,5.83-2.45C353,400.08,355.06,400,357.11,398.07Z" transform="translate(-127.77 -120.75)"/><path class="cls-121" d="M306.57,398c2.39-.27,4.72-.37,5.83,2.44-2.31,4.29-5.54,6.26-9.93,5.7s-7.44-2.7-8.44-7.23q.38-4,.76-8.09l0,0c3.54,1.14,4.8,4.07,5.72,7.27C302.53,400,304.56,400.09,306.57,398Z" transform="translate(-127.77 -120.75)"/><path class="cls-120" d="M294.79,390.82q-.39,4.05-.76,8.09C292.6,396.06,293.45,393.42,294.79,390.82Z" transform="translate(-127.77 -120.75)"/><path class="cls-114" d="M298.08,421.88l-.05,1c-1.51-1-3.66-.73-4.77-2.48Z" transform="translate(-127.77 -120.75)"/><path class="cls-120" d="M363.56,398.9c0-1.6,0-3.2,0-4.8C364.74,395.7,364.48,397.3,363.56,398.9Z" transform="translate(-127.77 -120.75)"/><path class="cls-114" d="M298.84,422.86c7-1.55,13,3,19.66,3.47,10.42.7,20.85,1.82,30.8-2.94,2.93-1.4,6.3-.29,9.46-.53-.9,1.82-2.55,2.62-4.36,3.18-6.07,1.91-12.2,3.33-18.64,3.23-10.82-.17-21.73.86-32.19-3.1C301.67,425.45,299.83,424.81,298.84,422.86Z" transform="translate(-127.77 -120.75)"/><path class="cls-122" d="M306.57,398c-2,2.09-4,2-6.09.07-.35-1.88-.49-3.69,1.48-4.85l3.25.08C306.9,394.51,307.09,396.15,306.57,398Z" transform="translate(-127.77 -120.75)"/><path class="cls-123" d="M305.21,393.3l-3.25-.08c.1-1.15.76-1.58,1.86-1.5S305.12,392.45,305.21,393.3Z" transform="translate(-127.77 -120.75)"/><path class="cls-122" d="M357.11,398.07c-2.05,1.89-4.09,2-6.1-.07-.49-1.84-.33-3.49,1.37-4.7l3.25-.08C357.59,394.39,357.47,396.19,357.11,398.07Z" transform="translate(-127.77 -120.75)"/><path class="cls-124" d="M355.63,393.22l-3.25.08c.09-.86.39-1.51,1.39-1.58S355.53,392.07,355.63,393.22Z" transform="translate(-127.77 -120.75)"/></svg>